<svg viewBox="0 0 800 400" xmlns="http://www.w3.org/2000/svg">
  <!-- Background -->
  <rect width="800" height="400" fill="#f8fafc"/>
  
  <!-- Main Card -->
  <rect x="50" y="50" width="700" height="300" rx="12" fill="white" stroke="#e2e8f0" stroke-width="2"/>
  
  <!-- Header -->
  <rect x="50" y="50" width="700" height="60" rx="12" fill="#6366f1" opacity="0.1"/>
  <text x="400" y="85" text-anchor="middle" font-family="system-ui, sans-serif" font-size="18" font-weight="bold" fill="#1e293b">AI Instructions</text>
  
  <!-- File Cards -->
  <rect x="80" y="130" width="180" height="100" rx="8" fill="#f1f5f9" stroke="#6366f1" stroke-width="2"/>
  <text x="170" y="160" text-anchor="middle" font-family="monospace" font-size="14" fill="#6366f1" font-weight="600">claude.md</text>
  <path d="M100 180H240M100 200H200" stroke="#94a3b8" stroke-width="2" stroke-linecap="round"/>
  
  <rect x="310" y="130" width="180" height="100" rx="8" fill="#f1f5f9" stroke="#f59e0b" stroke-width="2"/>
  <text x="400" y="160" text-anchor="middle" font-family="monospace" font-size="14" fill="#f59e0b" font-weight="600">gemini.md</text>
  <path d="M330 180H470M330 200H430" stroke="#94a3b8" stroke-width="2" stroke-linecap="round"/>
  
  <rect x="540" y="130" width="180" height="100" rx="8" fill="#f1f5f9" stroke="#a78bfa" stroke-width="2"/>
  <text x="630" y="160" text-anchor="middle" font-family="monospace" font-size="14" fill="#a78bfa" font-weight="600">agent.md</text>
  <path d="M560 180H700M560 200H660" stroke="#94a3b8" stroke-width="2" stroke-linecap="round"/>
  
  <!-- Content Preview -->
  <rect x="80" y="250" width="640" height="80" rx="8" fill="#f1f5f9" stroke="#e2e8f0"/>
  <text x="170" y="275" text-anchor="middle" font-family="monospace" font-size="11" fill="#475569"># Project Context</text>
  <text x="170" y="295" text-anchor="middle" font-family="monospace" font-size="10" fill="#64748b">You are an expert...</text>
  <text x="170" y="315" text-anchor="middle" font-family="monospace" font-size="10" fill="#64748b">## Tech Stack</text>
  
  <circle cx="680" cy="290" r="20" fill="#6366f1"/>
  <path d="M670 290L678 298L695 280" stroke="white" stroke-width="3" stroke-linecap="round" stroke-linejoin="round"/>
  
  <!-- Code Annotation -->
  <rect x="280" y="20" width="240" height="25" rx="12" fill="#1e293b"/>
  <text x="400" y="37" text-anchor="middle" font-family="monospace" font-size="11" fill="#6366f1">.cursorrules, agent.md</text>
</svg>
