<svg viewBox="0 0 800 400" xmlns="http://www.w3.org/2000/svg">
  <!-- Background -->
  <rect width="800" height="400" fill="#f8fafc"/>
  
  <!-- Main Card -->
  <rect x="50" y="50" width="700" height="300" rx="12" fill="white" stroke="#e2e8f0" stroke-width="2"/>
  
  <!-- Header -->
  <rect x="50" y="50" width="700" height="60" rx="12" fill="#a855f7" opacity="0.1"/>
  <text x="400" y="85" text-anchor="middle" font-family="system-ui, sans-serif" font-size="18" font-weight="bold" fill="#1e293b">AI Skills</text>
  
  <!-- Skill Cards -->
  <rect x="80" y="130" width="200" height="100" rx="8" fill="#f1f5f9" stroke="#a855f7" stroke-width="2"/>
  <circle cx="130" cy="165" r="15" fill="#a855f7"/>
  <path d="M125 165L130 170L138 162" stroke="white" stroke-width="2" stroke-linecap="round" stroke-linejoin="round"/>
  <text x="170" y="195" text-anchor="middle" font-family="system-ui, sans-serif" font-size="12" fill="#475569" font-weight="600">File Operations</text>
  <text x="170" y="212" text-anchor="middle" font-family="monospace" font-size="9" fill="#64748b">read, write, edit</text>
  
  <rect x="300" y="130" width="200" height="100" rx="8" fill="#f1f5f9" stroke="#10b981" stroke-width="2"/>
  <circle cx="350" cy="165" r="15" fill="#10b981"/>
  <path d="M345 170L355 160L360 175" stroke="white" stroke-width="2" stroke-linecap="round" stroke-linejoin="round"/>
  <text x="400" y="195" text-anchor="middle" font-family="system-ui, sans-serif" font-size="12" fill="#475569" font-weight="600">Web Fetch</text>
  <text x="400" y="212" text-anchor="middle" font-family="monospace" font-size="9" fill="#64748b">search, fetch, crawl</text>
  
  <rect x="520" y="130" width="200" height="100" rx="8" fill="#f1f5f9" stroke="#3b82f6" stroke-width="2"/>
  <circle cx="570" cy="165" r="15" fill="#3b82f6"/>
  <path d="M560 160H580M560 165H580M560 170H575" stroke="white" stroke-width="2" stroke-linecap="round"/>
  <text x="620" y="195" text-anchor="middle" font-family="system-ui, sans-serif" font-size="12" fill="#475569" font-weight="600">Code Search</text>
  <text x="620" y="212" text-anchor="middle" font-family="monospace" font-size="9" fill="#64748b">grep, search, find</text>
  
  <!-- Skill Chain -->
  <rect x="80" y="260" width="640" height="70" rx="8" fill="#f1f5f9" stroke="#e2e8f0"/>
  <text x="400" y="285" text-anchor="middle" font-family="system-ui, sans-serif" font-size="12" fill="#475569" font-weight="600">Skill Composition</text>
  
  <!-- Skill nodes -->
  <circle cx="180" cy="310" r="12" fill="#a855f7"/>
  <text x="180" y="314" text-anchor="middle" fill="white" font-family="monospace" font-size="10">S1</text>
  
  <path d="M195 310L225 310" stroke="#94a3b8" stroke-width="2" stroke-dasharray="3,3"/>
  
  <circle cx="240" cy="310" r="12" fill="#10b981"/>
  <text x="240" y="314" text-anchor="middle" fill="white" font-family="monospace" font-size="10">S2</text>
  
  <path d="M255 310L285 310" stroke="#94a3b8" stroke-width="2" stroke-dasharray="3,3"/>
  
  <circle cx="300" cy="310" r="12" fill="#3b82f6"/>
  <text x="300" y="314" text-anchor="middle" fill="white" font-family="monospace" font-size="10">S3</text>
  
  <path d="M315 310L365 310" stroke="#94a3b8" stroke-width="2" stroke-dasharray="3,3"/>
  
  <rect x="370" y="295" width="80" height="30" rx="15" fill="#6366f1"/>
  <text x="410" y="313" text-anchor="middle" fill="white" font-family="system-ui, sans-serif" font-size="10" font-weight="600">Agent</text>
  
  <path d="M455 310L505 310" stroke="#94a3b8" stroke-width="2" stroke-dasharray="3,3"/>
  
  <circle cx="520" cy="310" r="12" fill="#f59e0b"/>
  <path d="M515 305L525 315M515 315L525 305" stroke="white" stroke-width="2" stroke-linecap="round"/>
  
  <!-- Code Annotation -->
  <rect x="280" y="20" width="240" height="25" rx="12" fill="#1e293b"/>
  <text x="400" y="37" text-anchor="middle" font-family="monospace" font-size="11" fill="#a855f7">opencode skills</text>
</svg>
